<svg width="35" height="35" viewBox="0 0 35 35" fill="none" xmlns="http://www.w3.org/2000/svg">
<g clip-path="url(#clip0_70_32)">
<path fill-rule="evenodd" clip-rule="evenodd" d="M0 13.4209C0.748225 6.1844 6.6361 0.473443 13.9509 0.000664395C13.8657 0.0690843 13.7872 0.146852 13.717 0.23319C10.6413 4.0154 8.7295 8.5963 8.19507 13.4209H0ZM9.1299 22.2727C9.1299 22.3825 9.134 22.4917 9.1421 22.6V28.8398C4.18348 26.7645 0.574903 22.1054 1.20887e-05 16.5459H8.1951C8.37802 18.1971 8.72228 19.8198 9.21933 21.3916C9.1605 21.678 9.1299 21.9728 9.1299 22.2727ZM11.3419 16.5459H15.7178L11.7656 18.2583C11.723 18.2767 11.6808 18.2958 11.6391 18.3154C11.5165 17.731 11.4172 17.1407 11.3419 16.5459ZM29.868 13.4209H21.6634C21.1289 8.5963 19.2171 4.0154 16.1415 0.23319C16.0711 0.146573 15.9923 0.0685808 15.9067 0C23.2263 0.468062 29.1192 6.181 29.868 13.4209ZM11.3419 13.4209H18.5165C18.0823 9.99133 16.853 6.7118 14.9292 3.84392C13.0054 6.7118 11.7761 9.99133 11.3419 13.4209ZM24.1254 16.7751C23.7792 16.6251 23.3863 16.6251 23.0401 16.7751L13.1062 21.0792C13.0012 21.1247 12.904 21.1824 12.816 21.2502C12.2947 21.5421 11.9424 22.0998 11.9424 22.7397V30.311C11.9424 31.2532 12.7063 32.017 13.6486 32.017C14.5908 32.017 15.3547 31.2532 15.3547 30.311V24.5582L23.0401 27.8883C23.3863 28.0383 23.7792 28.0383 24.1254 27.8883L34.0593 23.584C34.5585 23.3677 34.8815 22.8756 34.8815 22.3316C34.8815 21.7876 34.5585 21.2955 34.0593 21.0792L24.1254 16.7751ZM16.7932 28.0492L21.8528 30.2415C22.9561 30.7195 24.208 30.7195 25.3113 30.2415L30.3708 28.0492L30.3715 31.4458C30.3715 31.744 30.274 32.034 30.0935 32.2717L29.0077 31.4468C30.0935 32.2717 30.094 32.2712 30.0935 32.2717L30.0918 32.274L30.0895 32.2767L30.085 32.2828L30.074 32.2968L30.0437 32.3342C30.0202 32.3632 29.9892 32.4 29.951 32.4432C29.8747 32.5297 29.7685 32.6427 29.6315 32.7732C29.3578 33.0342 28.9583 33.3668 28.424 33.6945C27.347 34.3555 25.7463 34.9813 23.5816 34.9813C21.4168 34.9813 19.8177 34.3555 18.7422 33.6937C18.2088 33.3658 17.8103 33.0327 17.5372 32.7715C17.4005 32.6407 17.2946 32.5275 17.2184 32.441C17.1803 32.3975 17.1495 32.3607 17.1258 32.3318L17.0958 32.2942L17.0847 32.28L17.0802 32.274L17.0782 32.2712C17.0777 32.2707 17.0763 32.2687 18.1649 31.4462L17.0763 32.2688C16.8978 32.0327 16.801 31.745 16.8003 31.4488L16.7932 28.0492Z" fill="black"/>
</g>
<defs>
<clipPath id="clip0_70_32">
<rect width="35" height="35" fill="white"/>
</clipPath>
</defs>
</svg>
